<?xml version="1.0" standalone="no"?>
<!DOCTYPE svg PUBLIC "-//W3C//DTD SVG 20010904//EN" "http://www.w3.org/TR/2001/REC-SVG-20010904/DTD/svg10.dtd">
<svg version="1.0" xmlns="http://www.w3.org/2000/svg" width="500pt" height="500pt" viewBox="0 0 500 500" preserveAspectRatio="xMidYMid meet">
    <g transform="translate(0.000000,500.000000) scale(0.100000,-0.100000)" fill="#69b9ff" stroke="none">
        <path d="M2430 4596 c-44 -15 -1676 -961 -1709 -990 -53 -46 -51 -9 -51 -1092
0 -1101 -3 -1039 58 -1097 22 -21 1567 -923 1682 -982 43 -22 127 -22 171 0
19 10 358 205 754 435 396 229 755 436 797 460 102 57 147 95 169 144 17 38
19 74 19 472 0 451 0 454 -44 454 -21 0 -296 -155 -308 -174 -4 -6 -8 -114 -8
-240 0 -148 -4 -243 -12 -269 -25 -83 -57 -104 -738 -499 l-645 -373 -70 0
-70 0 -655 382 c-360 211 -662 389 -670 395 -9 7 -27 29 -40 48 l-25 35 0 807
0 806 30 43 c26 37 103 85 620 386 778 453 746 436 809 436 30 0 66 -8 86 -18
49 -25 1214 -700 1273 -737 29 -19 58 -49 75 -77 l27 -46 5 -358 c5 -371 6
-376 45 -377 6 0 78 39 160 88 l150 87 3 388 c3 449 4 439 -91 501 -104 67
-1633 950 -1667 962 -44 17 -85 17 -130 0z" />
        <path d="M2415 3856 c-74 -34 -982 -569 -997 -587 -26 -31 -23 -92 5 -123 31
-35 980 -584 1027 -595 43 -9 102 -2 140 19 14 7 179 102 367 212 188 109 349
201 357 204 14 6 16 -44 16 -475 l0 -481 -42 -26 c-366 -216 -721 -417 -752
-424 -25 -5 -57 -5 -84 1 -52 11 -726 400 -764 440 l-28 29 0 308 c0 169 -4
312 -8 318 -13 21 -287 176 -310 176 -13 0 -29 -5 -35 -11 -9 -9 -12 -141 -12
-504 0 -445 2 -495 17 -518 10 -17 215 -141 564 -344 505 -293 552 -318 604
-322 45 -4 65 -1 100 17 119 61 1077 623 1093 641 16 20 17 68 17 700 l0 678
-22 25 c-28 31 -314 196 -340 196 -10 0 -157 -80 -326 -179 -169 -98 -329
-191 -357 -206 -27 -15 -56 -33 -64 -39 -8 -6 -46 -11 -85 -11 l-71 0 -167 99
c-98 57 -170 106 -173 117 -13 40 7 58 177 156 166 95 174 98 233 98 50 -1 72
-7 129 -38 l69 -37 56 31 c240 135 272 160 252 197 -5 10 -106 74 -223 142
-201 117 -216 125 -273 127 -36 2 -72 -2 -90 -11z" />
    </g>
</svg>